<?xml version="1.0" standalone="no"?>
<!DOCTYPE svg PUBLIC "-//W3C//DTD SVG 20010904//EN"
 "http://www.w3.org/TR/2001/REC-SVG-20010904/DTD/svg10.dtd">
<svg version="1.0" xmlns="http://www.w3.org/2000/svg"
 width="50.000000pt" height="50.000000pt" viewBox="0 0 50.000000 50.000000"
 preserveAspectRatio="xMidYMid meet">

<g transform="translate(0.000000,50.000000) scale(0.100000,-0.100000)"
fill="#FFFFFF" stroke="none">
<path d="M289 463 c-1 -5 -2 -17 -3 -28 -1 -14 -8 -20 -26 -20 -31 0 -39 -31
-13 -51 17 -14 17 -14 0 -28 -26 -20 -18 -51 13 -51 20 0 25 -5 23 -22 -4 -31
32 -50 46 -26 8 15 12 16 34 4 33 -17 52 -10 52 20 0 19 5 24 25 24 31 0 39
31 13 51 -17 14 -17 14 0 28 26 20 18 51 -13 51 -19 0 -25 5 -24 22 1 30 -33
41 -52 16 -13 -17 -15 -17 -28 0 -13 17 -45 24 -47 10z m91 -88 c26 -32 -13
-81 -47 -59 -23 14 -28 41 -13 59 16 19 44 19 60 0z"/>
<path d="M134 275 c-7 -27 -23 -32 -42 -13 -9 9 -16 9 -29 -4 -14 -15 -14 -19
-3 -34 12 -14 12 -18 -5 -30 -10 -8 -22 -14 -27 -14 -4 0 -8 -9 -8 -20 0 -11
4 -20 8 -20 5 0 17 -6 27 -14 17 -12 17 -16 5 -30 -11 -15 -11 -19 3 -33 14
-14 18 -14 33 -3 14 12 18 12 30 -5 8 -10 14 -22 14 -27 0 -21 38 -6 44 17 7
27 25 32 44 13 10 -10 16 -8 29 5 13 13 14 19 5 29 -19 19 -14 35 13 42 16 4
25 13 25 26 0 13 -9 22 -25 26 -27 7 -32 23 -13 42 10 10 8 16 -5 29 -13 13
-20 14 -29 5 -19 -19 -35 -14 -42 13 -4 16 -13 25 -26 25 -13 0 -22 -9 -26
-25z m56 -90 c26 -32 -13 -81 -47 -59 -23 14 -28 41 -13 59 16 19 44 19 60 0z"/>
</g>
</svg>
