<?xml version="1.0" standalone="no"?>
<!DOCTYPE svg PUBLIC "-//W3C//DTD SVG 20010904//EN"
 "http://www.w3.org/TR/2001/REC-SVG-20010904/DTD/svg10.dtd">
<svg version="1.0" xmlns="http://www.w3.org/2000/svg"
 width="64.000000pt" height="64.000000pt" viewBox="0 0 64.000000 64.000000"
 preserveAspectRatio="xMidYMid meet">

<g transform="translate(0.000000,64.000000) scale(0.100000,-0.100000)"
fill="#FFFFFF" stroke="none">
<path d="M52 596 c-36 -129 -45 -186 -34 -210 14 -31 55 -43 94 -28 20 7 36 7
58 -1 22 -8 38 -8 60 0 22 8 38 8 60 0 22 -8 38 -8 60 0 22 8 38 8 60 0 22 -8
38 -8 60 0 22 8 38 8 60 0 l30 -11 0 -128 0 -128 -145 0 -145 0 0 110 c0 67
-4 110 -10 110 -6 0 -10 -53 -10 -140 l0 -140 -85 0 -85 0 0 140 c0 87 -4 140
-10 140 -6 0 -10 -53 -10 -140 l0 -140 -25 0 c-14 0 -25 -4 -25 -10 0 -6 110
-10 310 -10 200 0 310 4 310 10 0 6 -11 10 -25 10 l-25 0 0 156 c0 154 0 157
25 180 34 31 34 36 -16 227 l-10 37 -259 0 -259 0 -9 -34z m198 -88 c0 -80 -3
-105 -17 -120 -21 -23 -45 -23 -67 1 -15 17 -16 28 -6 107 15 116 14 114 55
114 l35 0 0 -102z m228 -2 c12 -90 11 -100 -4 -117 -21 -23 -42 -24 -66 -2
-15 14 -18 32 -18 120 l0 104 38 -3 37 -3 13 -99z"/>
<path d="M405 233 c-31 -68 -40 -103 -28 -103 9 0 73 135 73 153 0 24 -22 -1
-45 -50z"/>
<path d="M470 231 c-24 -47 -24 -51 -7 -51 17 0 49 77 37 85 -5 3 -18 -12 -30
-34z"/>
<path d="M200 165 c0 -8 5 -15 10 -15 6 0 10 7 10 15 0 8 -4 15 -10 15 -5 0
-10 -7 -10 -15z"/>
</g>
</svg>
