<?xml version="1.0" standalone="no"?>
<!DOCTYPE svg PUBLIC "-//W3C//DTD SVG 20010904//EN"
 "http://www.w3.org/TR/2001/REC-SVG-20010904/DTD/svg10.dtd">
<svg version="1.0" xmlns="http://www.w3.org/2000/svg"
 width="64.000000pt" height="64.000000pt" viewBox="0 0 64.000000 64.000000"
 preserveAspectRatio="xMidYMid meet">

<g transform="translate(0.000000,64.000000) scale(0.100000,-0.100000)"
fill="#000000" stroke="none">
<path d="M512 565 c-15 -18 -29 -25 -56 -25 -20 0 -36 -4 -36 -10 0 -5 16 -10
36 -10 27 0 41 -7 56 -25 13 -16 29 -25 49 -25 29 0 29 0 29 60 0 60 0 60 -29
60 -20 0 -36 -9 -49 -25z m46 -57 c-3 -21 -4 -21 -20 -4 -10 10 -18 21 -18 26
0 5 8 16 18 26 16 17 17 17 20 -4 2 -12 2 -32 0 -44z"/>
<path d="M10 530 c0 -5 18 -10 40 -10 22 0 40 5 40 10 0 6 -18 10 -40 10 -22
0 -40 -4 -40 -10z"/>
<path d="M160 530 c0 -6 30 -10 70 -10 40 0 70 4 70 10 0 6 -30 10 -70 10 -40
0 -70 -4 -70 -10z"/>
<path d="M496 431 c-15 -23 -66 -247 -66 -287 l0 -44 90 0 c56 0 90 -4 90 -10
0 -20 -49 -60 -72 -60 -13 0 -34 7 -46 16 -32 22 -43 7 -13 -17 35 -28 84 -25
123 10 27 24 33 36 33 71 0 35 -6 47 -33 71 -18 16 -41 29 -52 29 -11 0 -20 1
-20 3 0 1 7 27 15 57 19 72 19 134 -1 154 -17 18 -40 21 -48 7z"/>
<path d="M160 420 c0 -6 38 -10 95 -10 57 0 95 4 95 10 0 6 -38 10 -95 10 -57
0 -95 -4 -95 -10z"/>
<path d="M125 303 c-68 -35 -99 -79 -110 -156 l-7 -47 91 0 c57 0 91 -4 91
-10 0 -20 -49 -60 -72 -60 -13 0 -34 7 -46 16 -32 22 -43 7 -13 -17 46 -37
129 -12 151 46 7 20 17 23 73 27 39 2 75 11 91 22 38 25 25 32 -24 12 -22 -9
-43 -16 -45 -16 -10 0 -4 37 15 99 28 93 21 101 -83 101 -55 -1 -92 -6 -112
-17z"/>
</g>
</svg>
